<svg width="70" height="70" fill="none" xmlns="http://www.w3.org/2000/svg"><circle cx="35" cy="35" r="35" fill="#97C89A" fill-opacity=".2"/><path d="M19.222 30.946c-1.183 1.302-3.024-.52-1.84-1.821 9.73-9.5 25.507-9.5 35.237 0 1.183 1.3-.658 3.123-1.84 1.821-8.679-8.458-22.879-8.458-31.557 0z" fill="#5B815D"/><path d="M24.35 36.021c-1.183 1.302-3.024-.52-1.84-1.821 6.836-6.767 18.144-6.767 24.981 0 1.183 1.3-.657 3.123-1.84 1.821-5.786-5.725-15.384-5.725-21.301 0z" fill="#5B815D"/><path d="M29.478 41.097c-1.184 1.301-3.024-.52-1.84-1.822 4.075-3.904 10.65-3.904 14.725 0 1.184 1.301-.657 3.123-1.84 1.822-3.025-2.863-8.021-2.863-11.045 0zM35 43.309a2.345 2.345 0 012.367 2.342A2.345 2.345 0 0135 47.993a2.345 2.345 0 01-2.367-2.342A2.345 2.345 0 0135 43.31z" fill="#5B815D"/></svg>