<svg width="70" height="70" fill="none" xmlns="http://www.w3.org/2000/svg"><circle cx="35" cy="35" r="35" fill="#97C89A" fill-opacity=".2"/><path d="M40.523 20H29.485c-3.259 0-5.925 2.634-5.925 5.854v4.463h-.667c-2.815.11-5 2.451-4.889 5.268.074 1.903 1.26 3.622 3.037 4.39v3.66c0 1.5 1.037 2.816 2.519 3.182v2.085c0 .622.481 1.098 1.11 1.098.593.037 1.075-.439 1.112-1.024V46.89h18.444v1.866c0 .622.482 1.098 1.111 1.098a1.188 1.188 0 001.111-1.098v-1.975c1.482-.366 2.519-1.683 2.519-3.183v-3.659c2.593-1.134 3.74-4.097 2.593-6.658a5.087 5.087 0 00-4.445-3h-.666v-4.427c0-3.256-2.667-5.854-5.926-5.854zm-14.741 5.854c0-2.012 1.666-3.659 3.703-3.659h11.038c2.037 0 3.703 1.646 3.703 3.659v5.195a4.813 4.813 0 00-.852.658 4.703 4.703 0 00-1.222 1.83H27.856a4.703 4.703 0 00-1.222-1.83 4.813 4.813 0 00-.852-.658v-5.195zm2.407 9.878h13.63v3.256h-13.63v-3.256zm21.63-.695c.148 1.426-.815 2.744-2.222 3.073-.482.11-.852.548-.852 1.06v4.428c0 .621-.482 1.097-1.111 1.097h-21.26c-.63 0-1.11-.476-1.11-1.097V39.17c0-.513-.371-.952-.852-1.061-1.556-.366-2.52-1.866-2.186-3.403.297-1.28 1.408-2.158 2.741-2.231h.111c.74 0 1.445.292 2 .805.556.548.889 1.28.889 2.048v4.756c-.037.586.445 1.061 1.037 1.098H42.93c.593.036 1.074-.44 1.111-1.025V35.33c.037-1.61 1.333-2.89 2.963-2.853h.037c1.445.036 2.593 1.134 2.778 2.56z" fill="#5B815D"/></svg>