<svg width="70" height="70" fill="none" xmlns="http://www.w3.org/2000/svg"><circle cx="35" cy="35" r="35" fill="#97C89A" fill-opacity=".2"/><path d="M53 31.569c0-3.033-2.047-5.626-4.896-6.464C47.783 21.713 44.893 19 41.36 19c-1.244 0-2.448.32-3.491.958-1.044-.639-2.248-.958-3.492-.958-1.244 0-2.448.32-3.492.958-1.043-.639-2.247-.958-3.491-.958a6.74 6.74 0 00-6.743 6.584C18.445 26.7 17 29.015 17 31.569c0 2.992 2.007 5.546 4.736 6.424L24.425 51H44.41l2.61-12.768C50.39 37.832 53 35 53 31.569zM42.445 48.606H26.39l-2.127-10.334a6.48 6.48 0 003.09-1.038l.843 9.138 2.408-.2-.762-8.02c.441.08.923.16 1.404.16.683 0 1.325-.12 1.967-.28v8.3h2.408v-8.818c.963.478 2.007.758 3.13.758h.241l-.722 7.9 2.408.2.803-8.659a8.64 8.64 0 001.043-.558 5.938 5.938 0 002.127.917l-2.207 10.534zm3.772-12.688a4.244 4.244 0 01-2.93-1.157l-.802-.759-.803.759c-.802.718-1.846 1.157-2.93 1.157a4.244 4.244 0 01-2.93-1.157l-.802-.759-.803.759c-.802.718-1.846 1.157-2.93 1.157a4.243 4.243 0 01-2.93-1.157l-.802-.759-.802.759c-.803.718-1.847 1.157-2.93 1.157-2.408 0-4.335-1.955-4.335-4.31a4.292 4.292 0 012.93-4.07l.923-.319-.12-.957c-.04-.2-.04-.36-.04-.519 0-2.394 1.966-4.31 4.334-4.31 1.003 0 1.927.32 2.73.959l.762.598.762-.598c.763-.639 1.726-.958 2.73-.958 1.003 0 1.926.32 2.728.957l.763.599.682-.638c.763-.639 1.726-.958 2.73-.958 2.407 0 4.334 1.955 4.334 4.31v.239l-.08 1.197 1.123.12c2.167.279 3.813 2.114 3.813 4.269a4.38 4.38 0 01-4.375 4.389z" fill="#5B815D"/><path d="M27.377 25.881l-1.76 1.634 1.861 1.983 1.76-1.633-1.861-1.984zM33.557 29.283l-.04 2.393 2.729.046.04-2.394-2.729-.045zM40.733 24.548l-1.031 2.512 2.229.905 1.032-2.511-2.23-.906z" fill="#5B815D"/></svg>