<svg width="70" height="70" fill="none" xmlns="http://www.w3.org/2000/svg"><circle cx="35" cy="35" r="35" fill="#97C89A" fill-opacity=".2"/><path d="M34.316 20.022c1.137-1.142 1.137-2.986 0-4.172-.437-.44-.437-1.142 0-1.537.438-.395 1.137-.439 1.531 0 2.011 2.02 2.011 5.27 0 7.246-1.137 1.141-1.137 2.986 0 4.171.437.44.437 1.142 0 1.537-.437.396-1.137.44-1.53 0-1.968-1.976-1.968-5.225 0-7.245zm6.56 1.668c-1.53 1.537-1.53 4.084 0 5.621.437.44 1.137.44 1.53 0 .438-.439.438-1.142 0-1.537-.7-.702-.7-1.8 0-2.503 1.53-1.537 1.53-4.084 0-5.62-.437-.44-1.137-.44-1.53 0-.394.439-.438 1.141 0 1.536.7.66.7 1.8 0 2.503zm-13.119 5.621c.438.44 1.137.44 1.53 0 .394-.439.438-1.142 0-1.537-.699-.702-.699-1.8 0-2.503 1.531-1.537 1.531-4.084 0-5.62-.437-.44-1.136-.44-1.53 0-.393.439-.437 1.141 0 1.536.7.703.7 1.8 0 2.503-1.53 1.537-1.53 4.04 0 5.621zM17 51.902c0-.615.481-1.098 1.093-1.098h7.653c-2.318-1.493-4.067-3.776-4.942-6.41-.087-.22-.13-.44-.218-.66a48.801 48.801 0 01-1.837-10.582 3.047 3.047 0 01.831-2.24 2.975 2.975 0 012.186-.966h24.576c.83 0 1.618.351 2.186.966.569.615.875 1.405.787 2.24-.043.746-.13 1.536-.218 2.327h.656c2.886 0 5.247 2.371 5.247 5.27 0 .438-.044.834-.175 1.273-.568 2.327-2.667 3.996-5.072 3.996h-3.149a12.64 12.64 0 01-4.329 4.786h7.478c.612 0 1.093.483 1.093 1.098 0 .615-.481 1.098-1.093 1.098h-31.66c-.612-.044-1.093-.527-1.093-1.098zm30.479-8.124h2.317c1.4 0 2.624-.966 2.974-2.327a3.115 3.115 0 00-2.23-3.733 3.828 3.828 0 00-.744-.087h-.962a46.64 46.64 0 01-1.312 6.06l-.043.087zm-14.693 6.895h2.536c4.635.044 8.746-3.03 10.101-7.465l.044-.088c.919-3.294 1.53-6.675 1.75-10.1 0-.22-.088-.44-.22-.571a.861.861 0 00-.611-.264h-24.62a.861.861 0 00-.612.264c-.175.132-.218.351-.218.57.218 3.426.83 6.807 1.749 10.1.043.176.13.352.175.572 1.443 4.215 5.466 7.07 9.926 6.982z" fill="#5B815D"/></svg>